<svg viewBox="0 0 85 100" xmlns="http://www.w3.org/2000/svg">
<style>
path {
    fill: #008000;
}
</style>
<path fill-rule="evenodd" clip-rule="evenodd" d="M70.6096 40.8724C73.5889 43.6154 75.2889 47.7609 75.1408 53.5895C74.6535 72.7766 61.3764 83.5989 45.4917 87.193V100H41.8314V87.8874C26.7948 90.207 10.1823 86.3904 0.102936 77.3425C-2.25774 57.9817 36.5418 34.9913 59.2604 36.6192C50.6549 25.2385 41.6972 12.0039 46.2238 5.1702C51.554 -2.87671 63.3627 -0.137002 70.2436 4.02451C70.5441 3.35879 71.0222 2.92829 71.5606 2.92829C72.4702 2.92829 73.2077 4.15741 73.2077 5.67358C73.2077 5.83515 73.1994 5.99346 73.1833 6.14738C74.3907 7.21354 75.1944 8.27285 75.4295 9.18986C76.1598 12.0382 79.1154 14.7546 81.4796 16.9275C83.5135 18.7967 85.1096 20.2636 84.4748 21.0663C84.0811 21.5642 81.8807 19.9497 78.7999 17.6892C71.1408 12.0694 58.04 2.45676 53.7276 11.3825C48.1823 20.5426 63.5192 35.5008 66.4474 37.328C67.8045 38.1748 69.2854 39.4155 70.6096 40.8724ZM71.6981 7.68676C72.3046 7.68676 72.7962 6.86734 72.7962 5.85664C72.7962 4.84582 72.3046 4.02641 71.6981 4.02641C71.0916 4.02641 70.6 4.84582 70.6 5.85664C70.6 6.86734 71.0916 7.68676 71.6981 7.68676Z"/>
</svg>