<svg viewBox="0 0 100 90" xmlns="http://www.w3.org/2000/svg">
<style>
.body {
    fill: #008000;
}
.eye {
    fill: #ffffff;
}    
</style>
<g class="body">
<path d="M39.0229 70.3318L42.1631 73.4769L26.4638 89.1522L39.0229 70.3318Z"/>
<path d="M69.8778 70.1829C28.2019 91.2012 -7.02871 38.0624 1.38468 3.53668C28.8263 -15.7996 111.554 49.1646 69.8778 70.1829Z"/>
<path d="M78.9968 47.8961C88 42.6667 81.1902 32.6667 74.6569 29.6652C60.5411 23.1802 69.3333 2 82.5128 5.15984C84.6667 8.66667 100.365 15.778 100.052 16.541C99.6793 17.4473 92.727 15.3546 82.4691 12.3891C74.6786 10.1369 71.298 20.2004 76.6569 22.3318C96.4774 30.3335 93.7574 65.1885 61.2155 70.1411C53.8923 69.9322 54.2371 61.4448 78.9968 47.8961Z"/>
<path d="M85.9902 6.99849C85.9902 8.83943 85.0947 10.3318 83.9902 10.3318C82.8857 10.3318 81.9902 8.83943 81.9902 6.99849C81.9902 5.15756 82.8857 3.66516 83.9902 3.66516C85.0947 3.66516 85.9902 5.15756 85.9902 6.99849Z"/>
<path class="eye" d="M85.7333 6.22227C85.7333 7.44947 85.1364 8.4444 84.4 8.4444C83.6636 8.4444 83.0667 7.44947 83.0667 6.22227C83.0667 4.99493 83.6636 4 84.4 4C85.1364 4 85.7333 4.99493 85.7333 6.22227Z"/>
</g>
</svg>