<svg viewBox="0 0 85 100" xmlns="http://www.w3.org/2000/svg">
<style>
path {
    fill: #008000;
}
</style>
<path fill-rule="evenodd" clip-rule="evenodd" d="M69.9311 71.2365C60.0299 76.2299 50.4922 77.041 41.816 74.9117L26.4839 90.2203L37.5662 73.6129C12.05 64.2553 -4.70334 29.5265 1.38564 4.5394C21.6834 -9.76311 72.2055 22.021 80.3461 48.0719C87.3532 42.6691 80.9093 33.5341 74.7138 30.6878C60.6498 24.2266 69.3088 3.18884 82.4009 6.12324C82.7614 5.2446 83.3674 4.66797 84.0542 4.66797C85.1596 4.66797 86.0558 6.16151 86.0558 8.00385C86.0558 8.38727 86.017 8.75557 85.9455 9.09846C88.5466 10.8563 92.0924 12.7957 94.9884 14.3798C97.9615 16.0059 100.25 17.2575 100.128 17.5536C99.7821 18.3953 93.7657 16.6524 84.6973 14.0254L84.688 14.0227C83.9871 13.8197 83.2681 13.6114 82.532 13.3986C74.7355 11.1446 71.3524 21.2159 76.7153 23.3489C92.1246 29.5698 93.9205 52.0088 78.6866 64.0373C76.8188 66.7694 73.9542 69.2075 69.9311 71.2365ZM84.2976 9.55094C85.0345 9.55094 85.6319 8.55524 85.6319 7.32711C85.6319 6.09884 85.0345 5.10314 84.2976 5.10314C83.5606 5.10314 82.9632 6.09884 82.9632 7.32711C82.9632 8.55524 83.5606 9.55094 84.2976 9.55094Z"/>
</svg>