<svg viewBox="0 0 85 100" xmlns="http://www.w3.org/2000/svg">
<style>
.body {
    fill: #008000;
}
.eye {
    fill: #ffffff;
}    
</style>
<g class="body">
<path d="M41.8314 81.7286H45.4917V100H41.8314V81.7286Z"/>
<path d="M75.1408 53.5895C74.1647 92.0189 21.8822 96.893 0.102936 77.3425C-3.24339 49.898 76.117 15.1602 75.1408 53.5895Z"/>
<path d="M71.8465 54.3205C68.2718 45.4173 38.72 16.4986 46.2238 5.1702C53.7276 -6.15818 74.0711 3.89123 75.4296 9.18986C76.788 14.4886 85.8475 19.3305 84.4748 21.0663C83.1022 22.8021 59.7746 -1.13353 53.7276 11.3825C48.1823 20.5426 63.5192 35.5008 66.4474 37.328C71.6158 40.5528 78.5789 49.4911 71.8465 54.3205Z"/>
<path d="M73.2077 5.67358C73.2077 7.18975 72.4702 8.41887 71.5606 8.41887C70.6509 8.41887 69.9134 7.18975 69.9134 5.67358C69.9134 4.15741 70.6509 2.92829 71.5606 2.92829C72.4702 2.92829 73.2077 4.15741 73.2077 5.67358Z"/>
<path class="eye" d="M73.2077 5.85664C73.2077 6.86734 72.7161 7.68676 72.1096 7.68676C71.5031 7.68676 71.0115 6.86734 71.0115 5.85664C71.0115 4.84582 71.5031 4.02641 72.1096 4.02641C72.7161 4.02641 73.2077 4.84582 73.2077 5.85664Z"/>
</g>
</svg>